<svg width="64" height="64" viewBox="0 0 64 64" fill="none" xmlns="http://www.w3.org/2000/svg">
  <rect width="64" height="64" rx="12" fill="#121212"/>
  <path d="M20 18C20 16.8954 20.8954 16 22 16H42C43.1046 16 44 16.8954 44 18V46C44 47.1046 43.1046 48 42 48H22C20.8954 48 20 47.1046 20 46V18Z" fill="#FF0067"/>
  <path d="M32 36C35.3137 36 38 33.3137 38 30C38 26.6863 35.3137 24 32 24C28.6863 24 26 26.6863 26 30C26 33.3137 28.6863 36 32 36Z" fill="white"/>
  <path d="M32 34C34.2091 34 36 32.2091 36 30C36 27.7909 34.2091 26 32 26C29.7909 26 28 27.7909 28 30C28 32.2091 29.7909 34 32 34Z" fill="#121212"/>
  <path d="M32 32C33.1046 32 34 31.1046 34 30C34 28.8954 33.1046 28 32 28C30.8954 28 30 28.8954 30 30C30 31.1046 30.8954 32 32 32Z" fill="#FF0067"/>
</svg> 