<svg xmlns="http://www.w3.org/2000/svg" width="200" height="200" viewBox="0 0 200 200">
  <!-- Connect Four Game Icon -->
  <rect x="25" y="35" width="150" height="130" rx="5" ry="5" fill="#2563EB" />
  
  <!-- Grid Slots -->
  <circle cx="45" cy="55" r="12" fill="#1E40AF" />
  <circle cx="80" cy="55" r="12" fill="#1E40AF" />
  <circle cx="115" cy="55" r="12" fill="#1E40AF" />
  <circle cx="150" cy="55" r="12" fill="#1E40AF" />
  
  <circle cx="45" cy="90" r="12" fill="#1E40AF" />
  <circle cx="80" cy="90" r="12" fill="#EF4444" />
  <circle cx="115" cy="90" r="12" fill="#1E40AF" />
  <circle cx="150" cy="90" r="12" fill="#1E40AF" />
  
  <circle cx="45" cy="125" r="12" fill="#EF4444" />
  <circle cx="80" cy="125" r="12" fill="#EF4444" />
  <circle cx="115" cy="125" r="12" fill="#EF4444" />
  <circle cx="150" cy="125" r="12" fill="#1E40AF" />
  
  <circle cx="45" cy="160" r="12" fill="#1E40AF" />
  <circle cx="80" cy="160" r="12" fill="#EAB308" />
  <circle cx="115" cy="160" r="12" fill="#EAB308" />
  <circle cx="150" cy="160" r="12" fill="#EAB308" />
  
  <!-- Frame Overlay -->
  <rect x="25" y="35" width="150" height="130" rx="5" ry="5" fill="none" stroke="#1E293B" stroke-width="4" />
</svg> 