<svg xmlns="http://www.w3.org/2000/svg" width="200" height="200" viewBox="0 0 200 200">
  <!-- Dots and Boxes Game Icon -->
  <rect x="35" y="35" width="130" height="130" rx="5" ry="5" fill="#F3F4F6" />
  
  <!-- Dots -->
  <circle cx="50" cy="50" r="6" fill="#1E293B" />
  <circle cx="90" cy="50" r="6" fill="#1E293B" />
  <circle cx="130" cy="50" r="6" fill="#1E293B" />
  <circle cx="170" cy="50" r="6" fill="#1E293B" />
  
  <circle cx="50" cy="90" r="6" fill="#1E293B" />
  <circle cx="90" cy="90" r="6" fill="#1E293B" />
  <circle cx="130" cy="90" r="6" fill="#1E293B" />
  <circle cx="170" cy="90" r="6" fill="#1E293B" />
  
  <circle cx="50" cy="130" r="6" fill="#1E293B" />
  <circle cx="90" cy="130" r="6" fill="#1E293B" />
  <circle cx="130" cy="130" r="6" fill="#1E293B" />
  <circle cx="170" cy="130" r="6" fill="#1E293B" />
  
  <circle cx="50" cy="170" r="6" fill="#1E293B" />
  <circle cx="90" cy="170" r="6" fill="#1E293B" />
  <circle cx="130" cy="170" r="6" fill="#1E293B" />
  <circle cx="170" cy="170" r="6" fill="#1E293B" />
  
  <!-- Lines -->
  <line x1="50" y1="50" x2="90" y2="50" stroke="#6366F1" stroke-width="4" />
  <line x1="90" y1="50" x2="130" y2="50" stroke="#6366F1" stroke-width="4" />
  <line x1="130" y1="50" x2="170" y2="50" stroke="#1E293B" stroke-width="4" />
  
  <line x1="50" y1="90" x2="90" y2="90" stroke="#1E293B" stroke-width="4" />
  <line x1="130" y1="90" x2="170" y2="90" stroke="#1E293B" stroke-width="4" />
  
  <line x1="50" y1="130" x2="90" y2="130" stroke="#6366F1" stroke-width="4" />
  <line x1="90" y1="130" x2="130" y2="130" stroke="#6366F1" stroke-width="4" />
  <line x1="130" y1="130" x2="170" y2="130" stroke="#6366F1" stroke-width="4" />
  
  <line x1="50" y1="170" x2="90" y2="170" stroke="#1E293B" stroke-width="4" />
  <line x1="90" y1="170" x2="130" y2="170" stroke="#1E293B" stroke-width="4" />
  
  <line x1="50" y1="50" x2="50" y2="90" stroke="#1E293B" stroke-width="4" />
  <line x1="50" y1="90" x2="50" y2="130" stroke="#6366F1" stroke-width="4" />
  <line x1="50" y1="130" x2="50" y2="170" stroke="#1E293B" stroke-width="4" />
  
  <line x1="90" y1="50" x2="90" y2="90" stroke="#6366F1" stroke-width="4" />
  <line x1="90" y1="90" x2="90" y2="130" stroke="#6366F1" stroke-width="4" />
  <line x1="90" y1="130" x2="90" y2="170" stroke="#6366F1" stroke-width="4" />
  
  <line x1="130" y1="50" x2="130" y2="90" stroke="#1E293B" stroke-width="4" />
  <line x1="130" y1="90" x2="130" y2="130" stroke="#6366F1" stroke-width="4" />
  <line x1="130" y1="130" x2="130" y2="170" stroke="#1E293B" stroke-width="4" />
  
  <line x1="170" y1="50" x2="170" y2="90" stroke="#6366F1" stroke-width="4" />
  <line x1="170" y1="90" x2="170" y2="130" stroke="#6366F1" stroke-width="4" />
  <line x1="170" y1="130" x2="170" y2="170" stroke="#6366F1" stroke-width="4" />
  
  <!-- Filled Boxes -->
  <rect x="90" y="50" width="40" height="40" fill="#A78BFA" opacity="0.5" />
  <rect x="130" y="50" width="40" height="40" fill="#EC4899" opacity="0.5" />
  <rect x="90" y="130" width="40" height="40" fill="#EC4899" opacity="0.5" />
  
  <!-- Border -->
  <rect x="35" y="35" width="150" height="150" rx="5" ry="5" fill="none" stroke="#1E293B" stroke-width="3" />
</svg> 